<svg width="32" height="32" viewBox="0 0 32 32" fill="none" xmlns="http://www.w3.org/2000/svg">
<g clip-path="url(#clip0_27_465)">
<path d="M16 0.958801C11.6533 0.958801 11.1107 0.97778 9.404 1.0499C7.7 1.12581 6.54 1.38013 5.52 1.7559C4.468 2.14306 3.57467 2.66308 2.68533 3.50699C1.796 4.35091 1.24667 5.19735 0.84 6.19689C0.444 7.1648 0.174667 8.26556 0.096 9.88253C0.016 11.5021 0 12.017 0 16.1417C0 20.2664 0.02 20.7813 0.096 22.4008C0.176 24.0165 0.444 25.1185 0.84 26.0864C1.248 27.0835 1.796 27.9324 2.68533 28.7764C3.57467 29.619 4.46667 30.1415 5.52 30.5274C6.54133 30.902 7.70133 31.1588 9.404 31.2334C11.1107 31.3093 11.6533 31.3245 16 31.3245C20.3467 31.3245 20.8893 31.3056 22.596 31.2334C24.2987 31.1575 25.46 30.902 26.48 30.5274C27.5307 30.1403 28.4253 29.619 29.3147 28.7764C30.2027 27.9324 30.7533 27.0873 31.16 26.0864C31.5547 25.1185 31.8253 24.0165 31.904 22.4008C31.984 20.7813 32 20.2664 32 16.1417C32 12.017 31.98 11.5021 31.904 9.88253C31.824 8.26682 31.5547 7.16354 31.16 6.19689C30.752 5.19862 30.2027 4.35091 29.3147 3.50699C28.4253 2.66308 27.5347 2.1418 26.48 1.7559C25.46 1.38013 24.2987 1.12455 22.596 1.0499C20.8893 0.973984 20.3467 0.958801 16 0.958801ZM16 3.69172C20.2707 3.69172 20.78 3.71196 22.4667 3.78155C24.0267 3.85114 24.8733 4.0966 25.436 4.30662C26.1853 4.58118 26.716 4.91014 27.2787 5.44028C27.8373 5.97168 28.184 6.47651 28.4733 7.18757C28.692 7.72151 28.9533 8.52493 29.024 10.0053C29.1 11.607 29.1173 12.0878 29.1173 16.1417C29.1173 20.1955 29.0973 20.6775 29.0187 22.2781C28.9373 23.7584 28.6773 24.5618 28.4573 25.0958C28.1587 25.8068 27.8187 26.3104 27.2587 26.8444C26.7 27.3744 26.16 27.7034 25.4187 27.9779C24.8587 28.1855 23.9987 28.4334 22.4387 28.5005C20.74 28.5726 20.24 28.5891 15.96 28.5891C11.6787 28.5891 11.1787 28.5701 9.48133 28.4955C7.92 28.4182 7.06 28.1715 6.5 27.9628C5.74133 27.6794 5.22 27.3568 4.66133 26.8254C4.1 26.2952 3.74133 25.7828 3.46133 25.0793C3.24133 24.5479 2.98267 23.7319 2.90133 22.2515C2.84133 20.6573 2.82 20.1651 2.82 16.1227C2.82 12.079 2.84133 11.5856 2.90133 9.97237C2.98267 8.49204 3.24133 7.67722 3.46133 7.14582C3.74133 6.42463 4.1 5.93119 4.66133 5.39853C5.22 4.86839 5.74133 4.52677 6.5 4.26234C7.06 4.05231 7.90133 3.80559 9.46133 3.72967C11.1613 3.67274 11.6613 3.65376 15.94 3.65376L16 3.69172ZM16 8.34527C11.46 8.34527 7.784 11.8373 7.784 16.1417C7.784 20.4498 11.464 23.9381 16 23.9381C20.54 23.9381 24.216 20.446 24.216 16.1417C24.216 11.8335 20.536 8.34527 16 8.34527ZM16 21.2026C13.0533 21.2026 10.6667 18.9379 10.6667 16.1417C10.6667 13.3455 13.0533 11.0807 16 11.0807C18.9467 11.0807 21.3333 13.3455 21.3333 16.1417C21.3333 18.9379 18.9467 21.2026 16 21.2026ZM26.4613 8.03781C26.4613 9.04368 25.6 9.85976 24.5413 9.85976C23.4813 9.85976 22.6213 9.04242 22.6213 8.03781C22.6213 7.03321 23.4827 6.21713 24.5413 6.21713C25.5987 6.21587 26.4613 7.03321 26.4613 8.03781Z" fill="url(#paint0_linear_27_465)"/>
</g>
<defs>
<linearGradient id="paint0_linear_27_465" x1="16" y1="0.958801" x2="16" y2="31.3245" gradientUnits="userSpaceOnUse">
<stop stop-color="#FFBF00"/>
<stop offset="1" stop-color="#F2A60C"/>
</linearGradient>
<clipPath id="clip0_27_465">
<rect width="32" height="30.3657" fill="white" transform="translate(0 0.958801)"/>
</clipPath>
</defs>
</svg>
