<svg width="32" height="32" viewBox="0 0 32 32" fill="none" xmlns="http://www.w3.org/2000/svg">
<path d="M31.3307 8.78547C31.1499 8.13928 30.7934 7.5495 30.2968 7.0752C29.8003 6.60089 29.1811 6.25871 28.5013 6.08292C26.0067 5.44397 16 5.44397 16 5.44397C16 5.44397 5.99333 5.44397 3.49733 6.08292C2.81788 6.25902 2.19906 6.60133 1.70277 7.0756C1.20648 7.54987 0.850122 8.13949 0.669333 8.78547C0 11.1692 0 16.1416 0 16.1416C0 16.1416 0 21.114 0.669333 23.4977C0.850115 24.1439 1.20663 24.7336 1.70319 25.2079C2.19974 25.6822 2.8189 26.0244 3.49867 26.2002C5.99333 26.8391 16 26.8391 16 26.8391C16 26.8391 26.0067 26.8391 28.5027 26.2002C29.1825 26.0246 29.8017 25.6824 30.2983 25.2081C30.7949 24.7337 31.1513 24.1439 31.332 23.4977C32 21.114 32 16.1416 32 16.1416C32 16.1416 32 11.1692 31.3307 8.78547ZM12.7267 20.6559V11.6272L21.0907 16.1416L12.7267 20.6559Z" fill="url(#paint0_linear_27_467)"/>
<defs>
<linearGradient id="paint0_linear_27_467" x1="16" y1="5.44397" x2="16" y2="26.8391" gradientUnits="userSpaceOnUse">
<stop stop-color="#FFBF00"/>
<stop offset="1" stop-color="#F2A60C"/>
</linearGradient>
</defs>
</svg>
