<svg width="32" height="32" viewBox="0 0 32 32" fill="none" xmlns="http://www.w3.org/2000/svg">
<path d="M22.667 21.3198C20.867 21.3198 19.7337 21.8798 18.7337 22.3865C17.867 22.8265 17.1603 23.1865 16.0003 23.1865C14.8003 23.1865 14.1337 22.8532 13.267 22.3865C12.267 21.8798 11.1737 21.3198 9.33366 21.3198C7.49366 21.3198 6.40033 21.8798 5.40033 22.3865C4.82699 22.6798 4.32033 22.9332 3.70699 23.0798C3.10699 23.2132 2.66699 23.6932 2.66699 24.2932V24.4265C2.66699 25.2265 3.41366 25.7998 4.18699 25.6398C5.17366 25.4398 5.92033 25.0665 6.60033 24.7198C7.46699 24.2798 8.16033 23.9198 9.33366 23.9198C10.507 23.9198 11.2003 24.2532 12.067 24.7198C13.067 25.2265 14.1603 25.7865 16.0003 25.7865C17.8403 25.7865 18.9337 25.2265 19.9337 24.7198C20.8003 24.2798 21.507 23.9198 22.667 23.9198C23.867 23.9198 24.5337 24.2532 25.4003 24.7198C26.0937 25.0665 26.8403 25.4532 27.8403 25.6532C28.0205 25.6883 28.2061 25.6835 28.3842 25.639C28.5622 25.5946 28.7283 25.5115 28.8708 25.3958C29.0132 25.2801 29.1285 25.1345 29.2085 24.9693C29.2885 24.8041 29.3312 24.6234 29.3337 24.4398V24.3198C29.3337 23.7065 28.8803 23.2265 28.2803 23.0932C27.667 22.9598 27.1737 22.7065 26.6003 22.3998C25.6003 21.8798 24.467 21.3198 22.667 21.3198ZM22.667 15.3865C20.867 15.3865 19.7337 15.9598 18.7337 16.4532C17.867 16.8798 17.1603 17.2532 16.0003 17.2532C14.8003 17.2532 14.1337 16.9198 13.267 16.4532C12.267 15.9465 11.1737 15.3865 9.33366 15.3865C7.49366 15.3865 6.40033 15.9598 5.40033 16.4532C4.82699 16.7332 4.32033 16.9998 3.69366 17.1465C3.10699 17.2798 2.66699 17.7598 2.66699 18.3598V18.4932C2.66707 18.6775 2.70822 18.8594 2.78746 19.0258C2.8667 19.1922 2.98203 19.3388 3.12506 19.455C3.26809 19.5713 3.43522 19.6541 3.61431 19.6976C3.79339 19.7411 3.97992 19.7442 4.16033 19.7065C5.16033 19.5065 5.90699 19.1198 6.60033 18.7865C7.46699 18.3198 8.13366 17.9865 9.33366 17.9865C10.5337 17.9865 11.2003 18.3198 12.067 18.7865C13.067 19.2932 14.1603 19.8532 16.0003 19.8532C17.8403 19.8532 18.9337 19.2798 19.9337 18.7865C20.8003 18.3198 21.467 17.9865 22.667 17.9865C23.867 17.9865 24.5337 18.3198 25.4003 18.7865C26.0937 19.1332 26.8403 19.5198 27.8403 19.7198C28.0215 19.7552 28.2083 19.7501 28.3874 19.7048C28.5664 19.6596 28.7332 19.5754 28.8759 19.4582C29.0185 19.341 29.1336 19.1937 29.2127 19.0269C29.2918 18.8601 29.3331 18.6778 29.3337 18.4932V18.3732C29.3337 17.7598 28.8803 17.2798 28.2803 17.1465C27.667 17.0132 27.1737 16.7598 26.6003 16.4532C25.6003 15.9465 24.467 15.3865 22.667 15.3865ZM26.6003 4.61318C25.6003 4.10651 24.4937 3.54651 22.667 3.54651C20.8403 3.54651 19.7337 4.10651 18.7337 4.61318C17.867 5.03984 17.1603 5.41318 16.0003 5.41318C14.8003 5.41318 14.1337 5.07984 13.267 4.61318C12.267 4.11984 11.1737 3.54651 9.33366 3.54651C7.49366 3.54651 6.40033 4.10651 5.40033 4.61318C4.82699 4.90651 4.32033 5.15984 3.70699 5.30651C3.10699 5.43984 2.66699 5.91984 2.66699 6.51984V6.61318C2.66699 7.41318 3.38699 7.99984 4.16033 7.83984C5.16033 7.63984 5.90699 7.25318 6.60033 6.91984C7.46699 6.47984 8.16033 6.11984 9.33366 6.11984C10.507 6.11984 11.2003 6.45318 12.067 6.91984C13.067 7.42651 14.1603 7.98651 16.0003 7.98651C17.8403 7.98651 18.9337 7.41318 19.9337 6.91984C20.8003 6.49318 21.507 6.11984 22.667 6.11984C23.867 6.11984 24.5337 6.45318 25.4003 6.91984C26.0937 7.26651 26.8403 7.65317 27.8403 7.85317C28.0215 7.88853 28.2083 7.88341 28.3874 7.83818C28.5664 7.79295 28.7332 7.70872 28.8759 7.59152C29.0185 7.47432 29.1336 7.32704 29.2127 7.16022C29.2918 6.9934 29.3331 6.81115 29.3337 6.62651V6.50651C29.3337 5.89318 28.8803 5.41318 28.2803 5.27984C27.667 5.14651 27.1737 4.90651 26.6003 4.61318ZM22.667 9.45318C20.867 9.45318 19.7337 10.0265 18.7337 10.5198C17.867 10.9865 17.2003 11.3198 16.0003 11.3198C14.8003 11.3198 14.1337 10.9865 13.267 10.5198C12.267 10.0132 11.1737 9.45318 9.33366 9.45318C7.49366 9.45318 6.40033 10.0265 5.40033 10.5198C4.82699 10.8265 4.33366 11.0798 3.72033 11.2132C3.12033 11.3465 2.66699 11.8265 2.66699 12.4398V12.5598C2.66707 12.7441 2.70822 12.9261 2.78746 13.0925C2.8667 13.2589 2.98203 13.4055 3.12506 13.5217C3.26809 13.6379 3.43522 13.7208 3.61431 13.7643C3.79339 13.8078 3.97992 13.8108 4.16033 13.7732C5.16033 13.5732 5.90699 13.1865 6.60033 12.8532C7.46699 12.4265 8.17366 12.0532 9.33366 12.0532C10.4937 12.0532 11.2003 12.3865 12.067 12.8532C13.067 13.3598 14.1603 13.9198 16.0003 13.9198C17.8403 13.9198 18.9337 13.3465 19.9337 12.8532C20.8003 12.4265 21.507 12.0532 22.667 12.0532C23.867 12.0532 24.5337 12.3865 25.4003 12.8532C26.0937 13.1998 26.8403 13.5865 27.8403 13.7865C28.0205 13.8217 28.2061 13.8168 28.3842 13.7724C28.5622 13.7279 28.7283 13.6449 28.8708 13.5291C29.0132 13.4134 29.1285 13.2678 29.2085 13.1026C29.2885 12.9374 29.3312 12.7567 29.3337 12.5732V12.4532C29.3337 11.8398 28.8803 11.3598 28.2803 11.2265C27.667 11.0932 27.1737 10.8398 26.6003 10.5332C25.6003 10.0132 24.467 9.45318 22.667 9.45318Z" fill="url(#paint0_linear_26_145)"/>
<defs>
<linearGradient id="paint0_linear_26_145" x1="16.0003" y1="3.54651" x2="16.0003" y2="25.7865" gradientUnits="userSpaceOnUse">
<stop stop-color="#FFBF00"/>
<stop offset="1" stop-color="#F2A60C"/>
</linearGradient>
</defs>
</svg>
