<svg width="20" height="20" viewBox="0 0 20 20" fill="none" xmlns="http://www.w3.org/2000/svg">
<path d="M16.667 3.34399H3.33299C2.41699 3.34399 1.67499 4.05569 1.67499 4.92586L1.66699 14.4151C1.66699 15.2853 2.41699 15.997 3.33299 15.997H16.667C17.583 15.997 18.333 15.2853 18.333 14.4151V4.92586C18.333 4.05569 17.583 3.34399 16.667 3.34399ZM16.333 6.7051L10.442 10.201C10.3091 10.2786 10.1561 10.3197 9.99999 10.3197C9.84391 10.3197 9.6909 10.2786 9.55799 10.201L3.66699 6.7051C3.5846 6.66003 3.51261 6.59968 3.45534 6.52763C3.39807 6.45558 3.35668 6.37332 3.33364 6.28576C3.3106 6.19821 3.30639 6.10714 3.32126 6.018C3.33613 5.92887 3.36977 5.84348 3.42017 5.76695C3.47058 5.69043 3.53671 5.62432 3.61464 5.57258C3.69256 5.52083 3.78066 5.48452 3.8737 5.4658C3.96673 5.44708 4.06279 5.44634 4.15613 5.46362C4.24948 5.4809 4.3382 5.51585 4.41699 5.56639L9.99999 8.88005L15.583 5.56639C15.6618 5.51585 15.7505 5.4809 15.8439 5.46362C15.9372 5.44634 16.0332 5.44708 16.1263 5.4658C16.2193 5.48452 16.3074 5.52083 16.3853 5.57258C16.4633 5.62432 16.5294 5.69043 16.5798 5.76695C16.6302 5.84348 16.6639 5.92887 16.6787 6.018C16.6936 6.10714 16.6894 6.19821 16.6663 6.28576C16.6433 6.37332 16.6019 6.45558 16.5446 6.52763C16.4874 6.59968 16.4154 6.66003 16.333 6.7051Z" fill="url(#paint0_linear_27_461)"/>
<defs>
<linearGradient id="paint0_linear_27_461" x1="9.99999" y1="3.34399" x2="9.99999" y2="15.997" gradientUnits="userSpaceOnUse">
<stop stop-color="#FFBF00"/>
<stop offset="1" stop-color="#F2A60C"/>
</linearGradient>
</defs>
</svg>
