<svg width="20" height="20" viewBox="0 0 20 20" fill="none" xmlns="http://www.w3.org/2000/svg">
<path d="M10 2.22766C6.50001 2.22766 3.33301 4.77364 3.33301 8.71169C3.33301 11.2264 5.37501 14.1842 9.45001 17.5918C9.604 17.7179 9.80061 17.7872 10.004 17.7872C10.2074 17.7872 10.404 17.7179 10.558 17.5918C14.625 14.1842 16.667 11.2264 16.667 8.71169C16.667 4.77364 13.5 2.22766 10 2.22766ZM10 10.1351C9.08301 10.1351 8.33301 9.42339 8.33301 8.55322C8.33301 7.68305 9.08301 6.97136 10 6.97136C10.917 6.97136 11.667 7.68305 11.667 8.55322C11.667 9.42339 10.917 10.1351 10 10.1351Z" fill="url(#paint0_linear_27_457)"/>
<defs>
<linearGradient id="paint0_linear_27_457" x1="10" y1="2.22766" x2="10" y2="17.7872" gradientUnits="userSpaceOnUse">
<stop stop-color="#FFBF00"/>
<stop offset="1" stop-color="#F2A60C"/>
</linearGradient>
</defs>
</svg>
