<svg width="20" height="20" viewBox="0 0 20 20" fill="none" xmlns="http://www.w3.org/2000/svg">
<path d="M16.0245 12.2652L13.9075 12.0356C13.6587 12.0079 13.4066 12.0341 13.17 12.1121C12.9334 12.1902 12.7185 12.3181 12.5415 12.4863L11.0075 13.941C8.64221 12.7993 6.71963 10.9749 5.51651 8.73043L7.05751 7.26718C7.41651 6.92747 7.59151 6.453 7.53251 5.97L7.29151 3.97725C7.24415 3.59142 7.04893 3.23559 6.74301 2.9775C6.4371 2.7194 6.04185 2.57706 5.63251 2.57758H4.19151C3.24951 2.57758 2.46651 3.32154 2.52451 4.21448C2.96651 10.968 8.65751 16.3608 15.7665 16.7802C16.7075 16.8352 17.4915 16.0922 17.4915 15.1983V13.8309C17.4936 13.4442 17.3449 13.0704 17.0741 12.7814C16.8033 12.4923 16.4295 12.3085 16.0245 12.2652Z" fill="url(#paint0_linear_27_478)"/>
<defs>
<linearGradient id="paint0_linear_27_478" x1="10.0065" y1="2.57758" x2="10.0065" y2="16.7831" gradientUnits="userSpaceOnUse">
<stop stop-color="#FFBF00"/>
<stop offset="1" stop-color="#F2A60C"/>
</linearGradient>
</defs>
</svg>
